<svg width="80" height="80" viewBox="0 0 80 80" fill="#07C8F9" xmlns="http://www.w3.org/2000/svg">
<path d="M70 50.1316V15C70 11.554 67.1961 8.75 63.75 8.75H61.25V6.25C61.25 4.18213 59.5679 2.5 57.5 2.5C55.4321 2.5 53.75 4.18213 53.75 6.25V8.75H47.5V6.25C47.5 4.18213 45.8179 2.5 43.75 2.5C41.6821 2.5 40 4.18213 40 6.25V8.75H32.5V6.25C32.5 4.18213 30.8179 2.5 28.75 2.5C26.6821 2.5 25 4.18213 25 6.25V8.75H18.75V6.25C18.75 4.18213 17.0679 2.5 15 2.5C12.9321 2.5 11.25 4.18213 11.25 6.25V8.75H8.75C5.30395 8.75 2.5 11.554 2.5 15V65C2.5 68.4461 5.30395 71.25 8.75 71.25H50.7793C53.3777 75.726 58.2121 78.75 63.75 78.75C72.0215 78.75 78.75 72.0215 78.75 63.75C78.75 57.7107 75.1555 52.5074 70 50.1316ZM56.25 6.25C56.25 5.5603 56.8103 5 57.5 5C58.1897 5 58.75 5.5603 58.75 6.25V13.75C58.75 14.4397 58.1897 15 57.5 15C56.8103 15 56.25 14.4397 56.25 13.75V6.25ZM42.5 6.25C42.5 5.5603 43.0603 5 43.75 5C44.4397 5 45 5.5603 45 6.25V13.75C45 14.4397 44.4397 15 43.75 15C43.0603 15 42.5 14.4397 42.5 13.75V6.25ZM27.5 6.25C27.5 5.5603 28.0603 5 28.75 5C29.4397 5 30 5.5603 30 6.25V13.75C30 14.4397 29.4397 15 28.75 15C28.0603 15 27.5 14.4397 27.5 13.75V6.25ZM13.75 6.25C13.75 5.5603 14.3103 5 15 5C15.6897 5 16.25 5.5603 16.25 6.25V13.75C16.25 14.4397 15.6897 15 15 15C14.3103 15 13.75 14.4397 13.75 13.75V6.25ZM8.75 11.25H11.25V13.75C11.25 15.8179 12.9321 17.5 15 17.5C17.0679 17.5 18.75 15.8179 18.75 13.75V11.25H25V13.75C25 15.8179 26.6821 17.5 28.75 17.5C30.8179 17.5 32.5 15.8179 32.5 13.75V11.25H40V13.75C40 15.8179 41.6821 17.5 43.75 17.5C45.8179 17.5 47.5 15.8179 47.5 13.75V11.25H53.75V13.75C53.75 15.8179 55.4321 17.5 57.5 17.5C59.5679 17.5 61.25 15.8179 61.25 13.75V11.25H63.75C65.8179 11.25 67.5 12.9321 67.5 15V21.25H5V15C5 12.9321 6.68213 11.25 8.75 11.25ZM8.75 68.75C6.68213 68.75 5 67.0679 5 65V23.75H67.5V49.2435C66.299 48.9327 65.0469 48.75 63.75 48.75C62.8965 48.75 62.0649 48.8382 61.25 48.9757V42.5C61.25 41.8091 60.6909 41.25 60 41.25H52.5C51.8091 41.25 51.25 41.8091 51.25 42.5V50C51.25 50.6909 51.8091 51.25 52.5 51.25H55.4761C51.4272 53.9388 48.75 58.5355 48.75 63.75C48.75 65.5051 49.0687 67.1833 49.625 68.75H8.75ZM58.75 48.75H53.75V43.75H58.75V48.75ZM63.75 76.25C56.8579 76.25 51.25 70.6421 51.25 63.75C51.25 56.8579 56.8579 51.25 63.75 51.25C70.6421 51.25 76.25 56.8579 76.25 63.75C76.25 70.6421 70.6421 76.25 63.75 76.25Z" fill="#07C8F9"/>
<path d="M65 61.5968V53.75H62.5V61.5968C61.7559 62.0298 61.25 62.8269 61.25 63.75C61.25 63.8766 61.2691 63.9979 61.2872 64.1194L56.7188 67.7734L58.2812 69.7266L62.8458 66.0749C63.1269 66.1844 63.4302 66.25 63.75 66.25C65.1307 66.25 66.25 65.1307 66.25 63.75C66.25 62.8269 65.7441 62.0298 65 61.5968Z" fill="#07C8F9"/>
<path d="M18.75 27.5H11.25C10.5591 27.5 10 28.0591 10 28.75V36.25C10 36.9409 10.5591 37.5 11.25 37.5H18.75C19.4409 37.5 20 36.9409 20 36.25V28.75C20 28.0591 19.4409 27.5 18.75 27.5ZM17.5 35H12.5V30H17.5V35Z" fill="#07C8F9"/>
<path d="M32.5 27.5H25C24.3091 27.5 23.75 28.0591 23.75 28.75V36.25C23.75 36.9409 24.3091 37.5 25 37.5H32.5C33.1909 37.5 33.75 36.9409 33.75 36.25V28.75C33.75 28.0591 33.1909 27.5 32.5 27.5ZM31.25 35H26.25V30H31.25V35Z" fill="#07C8F9"/>
<path d="M46.25 27.5H38.75C38.0591 27.5 37.5 28.0591 37.5 28.75V36.25C37.5 36.9409 38.0591 37.5 38.75 37.5H46.25C46.9409 37.5 47.5 36.9409 47.5 36.25V28.75C47.5 28.0591 46.9409 27.5 46.25 27.5ZM45 35H40V30H45V35Z" fill="#07C8F9"/>
<path d="M52.5 37.5H60C60.6909 37.5 61.25 36.9409 61.25 36.25V28.75C61.25 28.0591 60.6909 27.5 60 27.5H52.5C51.8091 27.5 51.25 28.0591 51.25 28.75V36.25C51.25 36.9409 51.8091 37.5 52.5 37.5ZM53.75 30H58.75V35H53.75V30Z" fill="#07C8F9"/>
<path d="M18.75 41.25H11.25C10.5591 41.25 10 41.8091 10 42.5V50C10 50.6909 10.5591 51.25 11.25 51.25H18.75C19.4409 51.25 20 50.6909 20 50V42.5C20 41.8091 19.4409 41.25 18.75 41.25ZM17.5 48.75H12.5V43.75H17.5V48.75Z" fill="#07C8F9"/>
<path d="M32.5 41.25H25C24.3091 41.25 23.75 41.8091 23.75 42.5V50C23.75 50.6909 24.3091 51.25 25 51.25H32.5C33.1909 51.25 33.75 50.6909 33.75 50V42.5C33.75 41.8091 33.1909 41.25 32.5 41.25ZM31.25 48.75H26.25V43.75H31.25V48.75Z" fill="#07C8F9"/>
<path d="M46.25 41.25H38.75C38.0591 41.25 37.5 41.8091 37.5 42.5V50C37.5 50.6909 38.0591 51.25 38.75 51.25H46.25C46.9409 51.25 47.5 50.6909 47.5 50V42.5C47.5 41.8091 46.9409 41.25 46.25 41.25ZM45 48.75H40V43.75H45V48.75Z" fill="#07C8F9"/>
<path d="M18.75 55H11.25C10.5591 55 10 55.5591 10 56.25V63.75C10 64.4409 10.5591 65 11.25 65H18.75C19.4409 65 20 64.4409 20 63.75V56.25C20 55.5591 19.4409 55 18.75 55ZM17.5 62.5H12.5V57.5H17.5V62.5Z" fill="#07C8F9"/>
<path d="M32.5 55H25C24.3091 55 23.75 55.5591 23.75 56.25V63.75C23.75 64.4409 24.3091 65 25 65H32.5C33.1909 65 33.75 64.4409 33.75 63.75V56.25C33.75 55.5591 33.1909 55 32.5 55ZM31.25 62.5H26.25V57.5H31.25V62.5Z" fill="#07C8F9"/>
<path d="M46.25 55H38.75C38.0591 55 37.5 55.5591 37.5 56.25V63.75C37.5 64.4409 38.0591 65 38.75 65H46.25C46.9409 65 47.5 64.4409 47.5 63.75V56.25C47.5 55.5591 46.9409 55 46.25 55ZM45 62.5H40V57.5H45V62.5Z" fill="#07C8F9"/>
</svg>
