<svg width="80" height="80" viewBox="0 0 80 80" fill="none" xmlns="http://www.w3.org/2000/svg">
<g clip-path="url(#clip0)">
<path d="M40 20.8191L49.4991 12.9032H61.9355V0H30.9677V12.9032H40V20.8191ZM33.5484 10.3226V2.58065H59.3548V10.3226H48.5654L42.5806 15.31V10.3226H33.5484Z" fill="#07C8F9"/>
<path d="M36.129 5.16138H38.7097V7.74202H36.129V5.16138Z" fill="#93EE93"/>
<path d="M41.2903 5.16138H51.6129V7.74202H41.2903V5.16138Z" fill="#93EE93"/>
<path d="M54.1935 5.16138H56.7742V7.74202H54.1935V5.16138Z" fill="#93EE93"/>
<path d="M65.6836 77.4193L64.6402 66.9738C68.9485 66.2927 72.2581 62.5623 72.2581 58.0644V41.2902H67.0968V39.5072C67.0968 37.7532 66.1328 36.1781 64.5829 35.3704C66.124 33.9547 67.0968 31.9303 67.0968 29.6773V27.0967C67.0968 22.8269 63.6246 19.3547 59.3548 19.3547C55.0851 19.3547 51.6129 22.8269 51.6129 27.0967V29.6773C51.6129 33.0178 53.7431 35.8618 56.7137 36.9455L49.7883 43.8709H42.5523C42.408 41.7199 40.9306 39.8449 38.8376 39.2464L33.5484 37.7368V35.4321C35.1279 34.0139 36.129 31.9637 36.129 29.6773V27.0967C36.129 22.8269 32.6569 19.3547 28.3871 19.3547C24.1173 19.3547 20.6452 22.8269 20.6452 27.0967V29.6773C20.6452 31.9625 21.6463 34.0126 23.2258 35.4321V37.7381L17.9366 39.2476C15.7327 39.8758 14.1935 41.9171 14.1935 44.2105V49.0322H9.03226V56.7741H11.6129V77.4193H0V79.9999H80V77.4193H65.6836ZM54.1935 56.7741V50.8568L63.3367 41.7136C63.9976 41.0527 64.3907 40.165 64.479 39.2388C64.4903 39.3289 64.5161 39.414 64.5161 39.5072V55.4838C64.5161 57.6177 62.7791 59.3547 60.6452 59.3547H50.3226V56.7741H54.1935ZM50.3226 67.0967H56.897L57.9291 77.4193H50.3226V67.0967ZM59.4903 67.0967H62.0583L63.0903 77.4193H60.5223L59.4903 67.0967ZM67.0968 55.4838V43.8709H69.6774V58.0644C69.6774 61.6216 66.783 64.516 63.2258 64.516H50.3226V61.9354H60.6452C64.2024 61.9354 67.0968 59.041 67.0968 55.4838ZM54.1935 29.6773V27.0967C54.1935 24.2501 56.5083 21.9354 59.3548 21.9354C62.2014 21.9354 64.5161 24.2501 64.5161 27.0967V29.6773C64.5161 32.5238 62.2014 34.8386 59.3548 34.8386C56.5083 34.8386 54.1935 32.5238 54.1935 29.6773ZM50.8569 46.4515L59.4657 37.8426C59.7354 37.573 60.1084 37.4193 60.4889 37.4193C61.2865 37.4193 61.9355 38.0682 61.9355 38.8658C61.9355 39.2464 61.7818 39.6194 61.5121 39.889L52.3689 49.0322H38.7097C37.9977 49.0322 37.4194 48.4538 37.4194 47.7418C37.4194 47.0299 37.9977 46.4515 38.7097 46.4515H50.8569ZM23.2258 27.0967C23.2258 24.2501 25.5406 21.9354 28.3871 21.9354C31.2336 21.9354 33.5484 24.2501 33.5484 27.0967V29.6773C33.5484 32.5238 31.2336 34.8386 28.3871 34.8386C25.5406 34.8386 23.2258 32.5238 23.2258 29.6773V27.0967ZM28.3871 37.4193C29.2931 37.4193 30.1588 37.2542 30.9677 36.9675V38.3536C30.6477 38.8476 29.7587 39.9999 28.3871 39.9999C27.0155 39.9999 26.1265 38.8476 25.8064 38.3536V36.9675C26.6154 37.2542 27.4811 37.4193 28.3871 37.4193ZM16.7742 44.2105C16.7742 43.0632 17.5447 42.0438 18.6454 41.7287L23.9611 40.2103C24.7096 41.1856 26.1662 42.5805 28.3871 42.5805C30.608 42.5805 32.0646 41.1856 32.8131 40.2091L38.1288 41.7275C39.1173 42.0104 39.8066 42.8697 39.9446 43.8696H38.7097C36.5757 43.8696 34.8387 45.6066 34.8387 47.7406C34.8387 48.1948 34.9313 48.6258 35.0762 49.0309H16.7742V44.2105ZM11.6129 51.6128H51.6129V54.1934H11.6129V51.6128ZM14.1935 61.9354H18.0645V59.3547H14.1935V56.7741H47.7419V59.3547H20.6452V61.9354H47.7419V77.4193H44.6686L42.088 72.258H19.8475L17.2669 77.4193H14.1935V61.9354ZM41.783 77.4193H20.1525L21.4428 74.8386H40.4927L41.783 77.4193Z" fill="#07C8F9"/>
</g>
<defs>
<clipPath id="clip0">
<rect width="80" height="80" fill="white"/>
</clipPath>
</defs>
</svg>
