<svg width="80" height="80" viewBox="0 0 80 80" fill="#07C8F9" xmlns="http://www.w3.org/2000/svg">
<path d="M80 7.74194H45.1613V5.16129C45.1613 2.31484 42.8465 0 40 0C37.1535 0 34.8387 2.31484 34.8387 5.16129V7.74194H0V18.0645H12.3303C11.8865 18.8271 11.6129 19.7006 11.6129 20.6452C11.6129 22.4374 12.5329 24.0168 13.9239 24.9419L4.23871 49.1561C2.54968 49.5729 1.29032 51.089 1.29032 52.9032C1.29032 54.7458 2.5871 56.2852 4.31355 56.6735L6.94452 61.9355H25.3135L27.8942 56.7742H28.3871C30.5213 56.7742 32.2581 55.0374 32.2581 52.9032C32.2581 51.089 30.9987 49.5729 29.3097 49.1561L19.6245 24.9432C21.0155 24.0168 21.9355 22.4387 21.9355 20.6452C21.9355 19.7006 21.6619 18.8271 21.2181 18.0645H25.4194C24.8452 19.6813 24.5161 21.4142 24.5161 23.2258C24.5161 29.9523 28.8348 35.6735 34.8387 37.8064V66.8916C30.2877 68.8877 27.0968 73.431 27.0968 78.7097V80H52.9032V78.7097C52.9032 73.431 49.7123 68.8877 45.1613 66.8916V37.8064C51.1652 35.6735 55.4839 29.9523 55.4839 23.2258C55.4839 21.4142 55.1548 19.6813 54.5806 18.0645H58.7819C58.3381 18.8271 58.0645 19.7006 58.0645 20.6452C58.0645 22.4374 58.9845 24.0168 60.3755 24.9419L50.689 49.1561C49.0013 49.5729 47.7419 51.089 47.7419 52.9032C47.7419 54.7458 49.0387 56.2852 50.7652 56.6735L53.3961 61.9355H71.7652L74.3458 56.7742H74.8387C76.9729 56.7742 78.7097 55.0374 78.7097 52.9032C78.7097 51.089 77.4503 49.5729 75.7613 49.1561L66.0761 24.9432C67.4671 24.0168 68.3871 22.4387 68.3871 20.6452C68.3871 19.7006 68.1135 18.8271 67.6697 18.0645H80V7.74194ZM37.4194 5.16129C37.4194 3.73935 38.5768 2.58065 40 2.58065C41.4232 2.58065 42.5806 3.73806 42.5806 5.16129V7.97548C41.7394 7.83355 40.8813 7.74194 40 7.74194C39.1187 7.74194 38.2606 7.83355 37.4194 7.97548V5.16129ZM5.16129 15.4839H2.58065V10.3226H5.16129V15.4839ZM23.7187 59.3548H8.53935L7.24903 56.7742H25.009L23.7187 59.3548ZM29.6774 52.9032C29.6774 53.6155 29.0994 54.1935 28.3871 54.1935H5.16129C4.44903 54.1935 3.87097 53.6155 3.87097 52.9032C3.87097 52.191 4.44903 51.6129 5.16129 51.6129H28.3871C29.0994 51.6129 29.6774 52.191 29.6774 52.9032ZM26.4813 49.0323H7.0671L16.3574 25.8064H17.191L26.4813 49.0323ZM14.1935 20.6452C14.1935 19.2219 15.351 18.0645 16.7742 18.0645C18.1974 18.0645 19.3548 19.2232 19.3548 20.6452C19.3548 22.0684 18.1974 23.2258 16.7742 23.2258C15.351 23.2258 14.1935 22.0684 14.1935 20.6452ZM7.74194 15.4839V10.3226H31.4594C29.471 11.6426 27.8129 13.4142 26.6116 15.4839H7.74194ZM50.2426 77.4193H29.7574C30.3935 72.3355 34.7445 68.3871 40 68.3871C45.2555 68.3871 49.6052 72.3355 50.2426 77.4193ZM37.4194 66.0671V38.4774C38.2606 38.6194 39.1187 38.711 40 38.711C40.8813 38.711 41.7394 38.6194 42.5806 38.4774V66.0671C41.7471 65.8968 40.8839 65.8064 40 65.8064C39.1161 65.8064 38.2529 65.8968 37.4194 66.0671ZM40 36.129C32.8852 36.129 27.0968 30.3406 27.0968 23.2258C27.0968 16.111 32.8852 10.3226 40 10.3226C47.1148 10.3226 52.9032 16.111 52.9032 23.2258C52.9032 30.3406 47.1148 36.129 40 36.129ZM70.1703 59.3548H54.991L53.7006 56.7742H71.4606L70.1703 59.3548ZM76.129 52.9032C76.129 53.6155 75.551 54.1935 74.8387 54.1935H51.6129C50.9006 54.1935 50.3226 53.6155 50.3226 52.9032C50.3226 52.191 50.9006 51.6129 51.6129 51.6129H74.8387C75.551 51.6129 76.129 52.191 76.129 52.9032ZM72.9329 49.0323H53.5187L62.809 25.8064H63.6426L72.9329 49.0323ZM60.6452 20.6452C60.6452 19.2219 61.8026 18.0645 63.2258 18.0645C64.649 18.0645 65.8064 19.2232 65.8064 20.6452C65.8064 22.0684 64.649 23.2258 63.2258 23.2258C61.8026 23.2258 60.6452 22.0684 60.6452 20.6452ZM72.2581 15.4839H53.3897C52.1871 13.4142 50.529 11.6439 48.5406 10.3226H72.2581V15.4839ZM77.4193 15.4839H74.8387V10.3226H77.4193V15.4839Z" fill="#07C8F9"/>
<path d="M41.9355 15.484H41.2903V12.9033H38.7097V15.484H38.0645C35.5742 15.484 33.5484 17.5098 33.5484 20.0001C33.5484 22.4904 35.5742 24.5162 38.0645 24.5162H41.9355C43.0026 24.5162 43.871 25.3846 43.871 26.4517C43.871 27.5188 43.0026 28.3872 41.9355 28.3872H38.0645C36.9974 28.3872 36.129 27.5188 36.129 26.4517V25.8078H33.5484V26.4517C33.5484 28.942 35.5742 30.9678 38.0645 30.9678H38.7097V33.5485H41.2903V30.9678H41.9355C44.4258 30.9678 46.4516 28.942 46.4516 26.4517C46.4516 23.9614 44.4258 21.9356 41.9355 21.9356H38.0645C36.9974 21.9356 36.129 21.0672 36.129 20.0001C36.129 18.933 36.9974 18.0646 38.0645 18.0646H41.9355C43.0026 18.0646 43.871 18.933 43.871 20.0001V20.6453H46.4516V20.0001C46.4516 17.5111 44.4258 15.484 41.9355 15.484Z" fill="#07C8F9"/>
</svg>
