<svg width="24" height="24" viewBox="0 0 24 24" fill="none" xmlns="http://www.w3.org/2000/svg">
<path d="M17.707 12.2932C17.6142 12.2003 17.504 12.1265 17.3827 12.0762C17.2614 12.0259 17.1313 12 17 12C16.8687 12 16.7386 12.0259 16.6173 12.0762C16.496 12.1265 16.3858 12.2003 16.293 12.2932L14.699 13.8872C13.96 13.6672 12.581 13.1672 11.707 12.2932C10.833 11.4192 10.333 10.0402 10.113 9.3012L11.707 7.7072C11.7999 7.61441 11.8737 7.50421 11.924 7.38289C11.9743 7.26158 12.0002 7.13153 12.0002 7.0002C12.0002 6.86887 11.9743 6.73882 11.924 6.61751C11.8737 6.49619 11.7999 6.38599 11.707 6.2932L7.707 2.2932C7.61421 2.20026 7.50401 2.12652 7.38269 2.07621C7.26138 2.0259 7.13133 2 7 2C6.86866 2 6.73862 2.0259 6.6173 2.07621C6.49599 2.12652 6.38579 2.20026 6.293 2.2932L3.581 5.0052C3.201 5.3852 2.987 5.9072 2.995 6.4402C3.018 7.8642 3.395 12.8102 7.293 16.7082C11.191 20.6062 16.137 20.9822 17.562 21.0062H17.59C18.118 21.0062 18.617 20.7982 18.995 20.4202L21.707 17.7082C21.7999 17.6154 21.8737 17.5052 21.924 17.3839C21.9743 17.2626 22.0002 17.1325 22.0002 17.0012C22.0002 16.8699 21.9743 16.7398 21.924 16.6185C21.8737 16.4972 21.7999 16.387 21.707 16.2942L17.707 12.2932ZM17.58 19.0052C16.332 18.9842 12.062 18.6492 8.707 15.2932C5.341 11.9272 5.015 7.6422 4.995 6.4192L7 4.4142L9.586 7.0002L8.293 8.2932C8.17546 8.41065 8.08904 8.55554 8.04155 8.71477C7.99406 8.874 7.987 9.04256 8.021 9.2052C8.045 9.3202 8.632 12.0472 10.292 13.7072C11.952 15.3672 14.679 15.9542 14.794 15.9782C14.9565 16.0132 15.1253 16.0067 15.2846 15.9593C15.444 15.9119 15.5889 15.8252 15.706 15.7072L17 14.4142L19.586 17.0002L17.58 19.0052Z" fill="#FEFFFE"/>
</svg>
