<svg width="80" height="80" viewBox="0 0 80 80" fill="none" xmlns="http://www.w3.org/2000/svg">
<g clip-path="url(#clip0)">
<path d="M56.1741 5.07324C51.7778 5.07324 47.4838 6.30903 43.7523 8.64748C43.0367 9.03435 37.6115 12.1708 38.4536 17.8847C38.7611 19.9716 39.8653 21.463 40.9333 22.9055C42.4403 24.941 43.8786 26.8868 43.4864 30.8229C43.4652 30.8116 43.4453 30.7985 43.4239 30.7876C42.3083 30.2187 41.038 30.1187 39.8469 30.5055C38.7565 30.8598 37.8534 31.584 37.2725 32.5594C36.8756 32.1752 36.422 31.8451 35.9193 31.5812C35.0437 31.1213 34.0876 30.896 33.1256 30.9104C33.0532 30.1269 33.094 29.6121 33.1404 29.0352C33.199 28.3054 33.2653 27.4782 33.0892 26.1768C32.7467 23.6483 31.2987 21.4394 29.0117 19.9567C26.2534 18.1683 22.546 17.6436 19.3368 18.5867C13.5005 20.3019 10.1264 26.4482 11.8153 32.2877C12.3138 34.0109 13.2296 35.6004 14.4638 36.8842C15.1116 37.5581 15.4621 38.4478 15.4257 39.3249C15.3221 41.8176 15.6665 44.2932 16.4493 46.6836C18.1257 51.8017 21.769 56.0334 26.7081 58.5986C29.7993 60.2041 33.1325 61.0194 36.4573 61.0192C38.4444 61.0192 40.4287 60.728 42.3558 60.1403C43.423 59.8149 44.4684 59.4033 45.4633 58.9166C48.1849 57.5852 50.3422 55.3125 51.5377 52.5166C52.2041 50.9583 52.5485 49.2925 52.5657 47.6203C53.3043 47.7561 54.085 47.7167 54.8441 47.472C57.2794 46.6872 58.6313 44.0279 57.8583 41.5446L56.6597 37.6945C55.8632 35.1363 53.8446 33.1874 51.2602 32.4809C49.6102 32.0302 47.9019 32.1344 46.3649 32.7352C47.4977 26.5216 45.2705 23.5108 43.4455 21.0458C42.5298 19.8091 41.7392 18.741 41.5458 17.4288C40.9916 13.6678 45.0819 11.4784 45.2513 11.3897C45.2916 11.3689 45.3311 11.3464 45.3695 11.3222C48.6131 9.27826 52.3496 8.19794 56.175 8.19794C67.5896 8.19794 76.8761 17.7411 76.8761 29.471C76.8761 42.3431 66.7693 53.1595 58.2911 59.9667C50.3522 66.3407 42.3081 70.4937 39.9997 71.6301C37.7803 70.5374 30.2659 66.6607 22.6444 60.7075C21.9643 60.1764 20.9826 60.2971 20.4512 60.9771C19.9199 61.6572 20.0407 62.6391 20.7207 63.1704C30.0556 70.4619 38.9697 74.6102 39.3447 74.7832C39.5525 74.8791 39.7759 74.927 39.9994 74.927C40.2228 74.927 40.4464 74.879 40.654 74.7832C41.0536 74.5988 50.5481 70.1794 60.1958 62.4446C65.8982 57.8731 70.4507 53.0928 73.727 48.237C77.8895 42.0676 80.0001 35.7538 80.0001 29.4713C80.0003 16.0181 69.3118 5.07324 56.1741 5.07324ZM31.0674 36.3424C31.7754 35.7202 32.5398 35.0474 32.9553 34.0485C33.4734 33.9998 33.9951 34.1001 34.4667 34.3477C35.0148 34.6357 35.4376 35.0921 35.6843 35.6501L35.0326 36.9288L30.5124 36.8393C30.6998 36.6654 30.8857 36.502 31.0674 36.3424ZM44.7994 38.4106L45.3198 37.3893C45.5275 37.0818 45.7733 36.7967 46.0552 36.5417C47.2475 35.4629 48.8849 35.0718 50.4355 35.4956C51.9863 35.9195 53.1974 37.089 53.6753 38.6238L54.8739 42.4737C55.14 43.3284 54.6963 44.2364 53.8849 44.4979C53.1144 44.7468 52.2805 44.3617 51.9678 43.6218L51.0544 40.6879C50.7978 39.864 49.9219 39.4039 49.098 39.6606C48.2741 39.9171 47.8141 40.7929 48.0706 41.617L49.008 44.6278C50.4231 49.1945 48.3545 54.0236 44.0895 56.1097C43.2431 56.5236 42.353 56.8742 41.4437 57.1514C32.4354 59.8985 22.3491 54.6589 19.4185 45.7111C18.7524 43.6775 18.4594 41.5726 18.5474 39.4549C18.6191 37.7306 17.9518 36.0045 16.7163 34.719C15.8193 33.7855 15.18 32.6755 14.8169 31.4196C13.6047 27.2282 16.0274 22.8163 20.2176 21.5849C20.9971 21.3558 21.8158 21.2439 22.6354 21.2439C24.2968 21.2439 25.9618 21.7038 27.3115 22.5788C28.3801 23.2716 29.7126 24.5308 29.9923 26.596C30.1234 27.5636 30.0779 28.1296 30.0253 28.7851C29.9615 29.5801 29.8892 30.481 30.1103 32.0057C30.2374 32.883 30.0651 33.0627 29.0042 33.9951C28.7124 34.2515 28.3818 34.542 28.0396 34.8795C28.0393 34.8799 28.0284 34.8905 28.0279 34.891L28.0088 34.9096C27.1542 35.7446 26.8852 36.9996 27.3235 38.107C27.7587 39.206 28.8051 39.9314 29.9896 39.9548L35.3526 40.061C36.3143 40.0818 37.2075 39.5428 37.6418 38.6904L39.903 34.2543C40.0923 33.8826 40.4153 33.6068 40.8122 33.4779C41.2094 33.3491 41.6325 33.3823 42.0045 33.5721C42.3764 33.7615 42.6522 34.0845 42.7811 34.4813C42.91 34.8784 42.8766 35.3016 42.687 35.6735L42.6073 35.8298C42.3469 36.2413 42.1261 36.6752 41.9473 37.1246L40.4261 40.1095C39.7425 41.4507 38.5154 42.48 37.0597 42.9334C36.4833 43.1128 35.8878 43.1981 35.2907 43.1857L28.5332 43.0498C27.6665 43.0334 26.957 43.7179 26.9396 44.5806C26.9223 45.4434 27.6076 46.1568 28.4704 46.1742L35.2279 46.3101C36.1617 46.3284 37.0906 46.1967 37.9887 45.9172C39.5631 45.4268 40.9659 44.4992 42.0312 43.2739L43.1323 46.8103C43.3889 47.6342 44.2642 48.0944 45.0888 47.8376C45.9127 47.5811 46.3727 46.7051 46.1161 45.8812L44.7244 41.4114C44.4141 40.4137 44.4539 39.3592 44.7994 38.4106Z" fill="#07C8F9"/>
<path d="M18.2849 57.0631L18.2401 57.023C17.598 56.4464 16.6101 56.4995 16.0335 57.1416C15.4569 57.7836 15.51 58.7716 16.1521 59.3481L16.1969 59.3883C16.4954 59.6563 16.8685 59.7883 17.2404 59.7883C17.6685 59.7883 18.0949 59.6133 18.4035 59.2697C18.9801 58.6274 18.9269 57.6397 18.2849 57.0631Z" fill="#07C8F9"/>
<path d="M36.2965 8.67888C32.5539 6.31997 28.2417 5.07324 23.826 5.07324C10.6883 5.07324 0 16.0181 0 29.4713C0 37.9673 3.82095 46.4297 11.3568 54.6236C11.6649 54.9586 12.0854 55.1283 12.5072 55.1283C12.8852 55.1283 13.2644 54.9919 13.5646 54.7158C14.1997 54.1317 14.2411 53.1433 13.6569 52.508C6.66831 44.9093 3.12501 37.1585 3.12501 29.4713C3.12501 17.7413 12.4116 8.19825 23.826 8.19825C27.651 8.19825 31.3873 9.27873 34.6304 11.3226C35.3603 11.7828 36.3253 11.564 36.7855 10.8339C37.2455 10.1039 37.0266 9.13904 36.2965 8.67888Z" fill="#07C8F9"/>
<path d="M56.1744 12.5005C55.3114 12.5005 54.6117 13.2 54.6117 14.063C54.6117 14.926 55.3112 15.6255 56.1742 15.6255H56.1828C57.0458 15.6255 57.7411 14.926 57.7411 14.063C57.7411 13.2 57.0373 12.5005 56.1744 12.5005Z" fill="#07C8F9"/>
<path d="M69.7442 19.7122C67.8117 16.9031 65.1356 14.7826 62.0049 13.5795C61.1995 13.27 60.2956 13.672 59.9859 14.4775C59.6763 15.2829 60.0784 16.1869 60.8838 16.4965C66.1176 18.5078 69.6342 23.722 69.6342 29.4714C69.6342 30.3344 70.3337 31.0339 71.1967 31.0339C72.0597 31.0339 72.7592 30.3344 72.7592 29.4714C72.7592 25.9538 71.7167 22.5791 69.7442 19.7122Z" fill="#07C8F9"/>
</g>
<defs>
<clipPath id="clip0">
<rect width="80" height="80" fill="white"/>
</clipPath>
</defs>
</svg>
