<svg width="80" height="80" viewBox="0 0 80 80" fill="none" xmlns="http://www.w3.org/2000/svg">
<path d="M77.5 17.5H70C69.3355 17.4961 68.6969 17.757 68.225 18.225L63.975 22.5H60V20C60 15.8578 56.6422 12.5 52.5 12.5H7.5C3.35781 12.5 0 15.8578 0 20V60C0 64.1422 3.35781 67.5 7.5 67.5H52.5C56.6422 67.5 60 64.1422 60 60V57.5H63.975L68.25 61.775C68.7156 62.2369 69.3442 62.4972 70 62.5H77.5C78.8808 62.5 80 61.3808 80 60V20C80 18.6192 78.8808 17.5 77.5 17.5ZM75 57.5H71.025L66.75 53.225C66.2844 52.7631 65.6558 52.5028 65 52.5H57.5C56.1192 52.5 55 53.6192 55 55V60C55 61.3808 53.8808 62.5 52.5 62.5H7.5C6.11922 62.5 5 61.3808 5 60V20C5 18.6192 6.11922 17.5 7.5 17.5H52.5C53.8808 17.5 55 18.6192 55 20V45H60V27.5H65C65.6645 27.5039 66.3033 27.243 66.775 26.775L71.025 22.5H75V57.5Z" fill="#A5C422"/>
<path d="M27.5 30H22.5V35H27.5V30Z" fill="#A5C422"/>
<path d="M37.5 30H32.5V35H37.5V30Z" fill="#A5C422"/>
<path d="M37.5 45H22.5V42.5H17.5V45C17.5 47.7614 19.7386 50 22.5 50H37.5C40.2614 50 42.5 47.7614 42.5 45V42.5H37.5V45Z" fill="#A5C422"/>
</svg>
